<svg width="40" height="40" viewBox="0 0 40 40" fill="none" xmlns="http://www.w3.org/2000/svg">
<g clip-path="url(#clip0_2_267)">
<path fill-rule="evenodd" clip-rule="evenodd" d="M21.7667 26.7666C21.2979 27.2348 20.6625 27.4978 20 27.4978C19.3375 27.4978 18.7021 27.2348 18.2334 26.7666L8.80335 17.34C8.33458 16.871 8.07132 16.235 8.07147 15.5719C8.07163 14.9088 8.33519 14.2729 8.80418 13.8041C9.27317 13.3354 9.90918 13.0721 10.5723 13.0723C11.2354 13.0724 11.8712 13.336 12.34 13.805L20 21.465L27.66 13.805C28.1313 13.3494 28.7627 13.0971 29.4182 13.1025C30.0737 13.1078 30.7009 13.3705 31.1646 13.8338C31.6283 14.2971 31.8916 14.924 31.8976 15.5795C31.9036 16.235 31.6519 16.8666 31.1967 17.3383L21.7684 26.7683L21.7667 26.7666Z" fill="white"/>
</g>
<defs>
<clipPath id="clip0_2_267">
<rect width="40" height="40" fill="white"/>
</clipPath>
</defs>
</svg>
