<svg width="18" height="30" viewBox="0 0 18 30" fill="none" xmlns="http://www.w3.org/2000/svg">
<mask id="mask0_2_215" style="mask-type:alpha" maskUnits="userSpaceOnUse" x="0" y="0" width="18" height="30">
<rect width="18" height="30" fill="#C4C4C4"/>
</mask>
<g mask="url(#mask0_2_215)">
<rect x="14.5422" y="23.3933" width="3.40808" height="6.6011" fill="white"/>
<path d="M-0.0496826 29.9944L-0.0496826 26.5698H17.9668V29.9944H-0.0496826Z" fill="white"/>
<rect x="-0.0425415" y="21.3351" width="3.41129" height="8.66504" fill="white"/>
<path d="M17.981 6.69903L17.9739 11.068L2.10012 23.9619L-0.0259106 21.3279L17.981 6.69903Z" fill="white"/>
<path d="M-6.10352e-05 1.52588e-05L3.36328 2.75267L3.36328 16.2496L-6.10352e-05 19.0022L-6.10352e-05 1.52588e-05Z" fill="white"/>
<path d="M17.9717 27.5288L14.5605 24.7761V19.032L17.9717 16.2794V27.5288Z" fill="white"/>
<path d="M10.4062 22.4056L14.5422 19.0423H17.3713L17.3547 22.4056H10.4062Z" fill="white"/>
<path d="M4.74439e-06 4.39538L-0.0214403 -4.79487e-05L11.0905 9.02733L8.96445 11.6613L4.74439e-06 4.39538Z" fill="white"/>
<path d="M17.9674 4.39541L17.9645 -1.65993e-05L6.85257 9.02736L8.98374 11.6766L17.9674 4.39541Z" fill="white"/>
</g>
</svg>
